<?xml version="1.0" encoding="UTF-8" standalone="no"?>
<!-- Created with Inkscape (http://www.inkscape.org/) -->

<svg
   width="120"
   height="120"
   viewBox="0 0 31.749999 31.75"
   version="1.1"
   id="svg5"
   inkscape:version="1.2.2 (732a01da63, 2022-12-09)"
   sodipodi:docname="logo.svg"
   inkscape:export-filename="logo.png"
   inkscape:export-xdpi="102.4"
   inkscape:export-ydpi="102.4"
   xmlns:inkscape="http://www.inkscape.org/namespaces/inkscape"
   xmlns:sodipodi="http://sodipodi.sourceforge.net/DTD/sodipodi-0.dtd"
   xmlns="http://www.w3.org/2000/svg"
   xmlns:svg="http://www.w3.org/2000/svg">
  <sodipodi:namedview
     id="namedview7"
     pagecolor="#505050"
     bordercolor="#ffffff"
     borderopacity="1"
     inkscape:showpageshadow="0"
     inkscape:pageopacity="0"
     inkscape:pagecheckerboard="1"
     inkscape:deskcolor="#505050"
     inkscape:document-units="mm"
     showgrid="false"
     inkscape:zoom="4.7572176"
     inkscape:cx="49.503727"
     inkscape:cy="60.960003"
     inkscape:window-width="1920"
     inkscape:window-height="1129"
     inkscape:window-x="-8"
     inkscape:window-y="-8"
     inkscape:window-maximized="1"
     inkscape:current-layer="layer1" />
  <defs
     id="defs2">
    <rect
       x="0"
       y="0"
       width="120"
       height="60"
       id="rect4324" />
    <rect
       x="0"
       y="0"
       width="120"
       height="60"
       id="rect4318" />
    <rect
       x="0"
       y="0"
       width="120"
       height="60"
       id="rect5109" />
  </defs>
  <g
     inkscape:label="Layer 1"
     inkscape:groupmode="layer"
     id="layer1">
    <path
       id="rect2970"
       style="fill:#aa4400;stroke-width:3;fill-opacity:1"
       d="M 0 15.875 L 0 31.75 L 31.75 31.75 L 31.75 15.875 L 0 15.875 z M 20.605977 19.177124 C 21.228277 19.177124 21.778156 19.32324 22.256523 19.61534 C 22.734889 19.903207 23.115972 20.328715 23.399605 20.891748 L 21.812105 21.856547 C 21.642772 21.560214 21.450263 21.333635 21.234363 21.177002 C 21.022696 21.020369 20.792182 20.942391 20.542415 20.942391 C 20.309582 20.942391 20.110652 21.010013 19.945553 21.145479 C 19.784686 21.276713 19.704224 21.446026 19.704224 21.653459 C 19.704224 21.805859 19.750617 21.943587 19.84375 22.066353 C 19.936883 22.18912 20.099776 22.315975 20.332609 22.447209 C 20.565442 22.578442 20.893712 22.724558 21.317045 22.885425 C 21.897011 23.105558 22.368913 23.342493 22.732979 23.596493 C 23.101279 23.846259 23.376219 24.14046 23.558252 24.479126 C 23.740285 24.813559 23.83162 25.209451 23.83162 25.66665 C 23.83162 26.204283 23.698344 26.684573 23.431645 27.107906 C 23.169178 27.527006 22.794515 27.855276 22.307682 28.092342 C 21.825083 28.329409 21.266298 28.447876 20.631299 28.447876 C 19.983599 28.447876 19.407522 28.333861 18.903756 28.105261 C 18.39999 27.876661 17.991774 27.552844 17.678507 27.133744 C 17.365241 26.710411 17.163827 26.217281 17.074927 25.654248 L 19.018477 25.17159 C 19.107377 25.671123 19.295434 26.047754 19.583301 26.301754 C 19.871167 26.555753 20.241895 26.682609 20.694861 26.682609 C 21.029294 26.682609 21.304234 26.604631 21.520133 26.447998 C 21.740267 26.287132 21.850346 26.068941 21.850346 25.793774 C 21.850346 25.624441 21.7995 25.476357 21.6979 25.349357 C 21.5963 25.218124 21.433408 25.090752 21.209041 24.967985 C 20.988908 24.845218 20.681867 24.709975 20.288167 24.561808 C 19.674335 24.324742 19.179236 24.072999 18.80247 23.806299 C 18.429937 23.535366 18.15448 23.228324 17.976681 22.885425 C 17.798881 22.542525 17.71003 22.144665 17.71003 21.691699 C 17.71003 21.204866 17.830982 20.77097 18.072282 20.38997 C 18.313582 20.00897 18.652208 19.712285 19.088241 19.500618 C 19.528507 19.284719 20.034478 19.177124 20.605977 19.177124 z M 0.8443929 19.405534 L 4.1465169 19.405534 C 4.7476497 19.405534 5.2664614 19.496869 5.7024943 19.678902 C 6.1385272 19.856702 6.4727008 20.114866 6.7055339 20.453532 C 6.938367 20.792198 7.0548665 21.192026 7.0548665 21.653459 C 7.0548665 22.038692 6.9788566 22.385706 6.8264567 22.694739 C 6.6782902 23.003772 6.4665197 23.253547 6.1913534 23.444047 C 6.6485529 23.643014 6.9871789 23.922406 7.207312 24.282239 C 7.4274451 24.642072 7.5375244 25.082389 7.5375244 25.603088 C 7.5375244 26.144954 7.419057 26.616856 7.1819906 27.019023 C 6.9491575 27.416956 6.6124993 27.723997 6.1722331 27.939897 C 5.7319669 28.151563 5.2131551 28.257707 4.6162557 28.257707 L 0.8443929 28.257707 L 0.8443929 19.405534 z M 11.652002 19.405534 L 13.112895 19.405534 L 16.782955 28.257707 L 14.611511 28.257707 L 14.046171 26.75909 L 10.712524 26.75909 L 10.140983 28.257707 L 7.9690226 28.257707 L 11.652002 19.405534 z M 24.961784 19.405534 L 30.905607 19.405534 L 30.905607 21.18372 L 26.955977 21.18372 L 26.955977 22.808944 L 30.714921 22.808944 L 30.714921 24.58713 L 26.955977 24.58713 L 26.955977 26.479521 L 30.905607 26.479521 L 30.905607 28.257707 L 24.961784 28.257707 L 24.961784 19.405534 z M 2.8385864 21.234363 L 2.8385864 22.808944 L 4.1465169 22.808944 C 4.4343833 22.808944 4.6589943 22.737386 4.8198608 22.593453 C 4.9807273 22.445286 5.0611898 22.237452 5.0611898 21.970752 C 5.0611898 21.733686 4.9807273 21.552049 4.8198608 21.425049 C 4.6632277 21.298049 4.4386166 21.234363 4.1465169 21.234363 L 2.8385864 21.234363 z M 12.388908 22.377445 L 11.392069 24.980904 L 13.373344 24.980904 L 12.388908 22.377445 z M 2.8385864 24.58713 L 2.8385864 26.428878 L 4.4514079 26.428878 C 5.1795405 26.428878 5.5433309 26.123804 5.5433309 25.514205 C 5.5433309 25.217872 5.44806 24.989325 5.2575602 24.828459 C 5.0712937 24.667592 4.8027742 24.58713 4.4514079 24.58713 L 2.8385864 24.58713 z " />
    <text
       xml:space="preserve"
       transform="scale(0.26458333)"
       id="text4316"
       style="font-weight:900;font-size:26.6667px;line-height:0px;font-family:'HK Grotesk';-inkscape-font-specification:'HK Grotesk Heavy';text-align:center;white-space:pre;shape-inside:url(#rect4318);display:inline;fill:#aa4400;fill-opacity:1;stroke:none;stroke-width:11.3386" />
    <text
       xml:space="preserve"
       transform="matrix(0.26458333,0,0,0.26458333,-0.16368809,9.3993143)"
       id="text4322"
       style="font-weight:900;font-size:48px;line-height:0px;font-family:'HK Grotesk';-inkscape-font-specification:'HK Grotesk Heavy';text-align:center;white-space:pre;shape-inside:url(#rect4324);display:inline;fill:#aa4400;fill-opacity:1;stroke:none;stroke-width:11.3386"><tspan
         x="15.144012"
         y="12.838066"
         id="tspan5242">ECS</tspan></text>
  </g>
</svg>
